<svg width="120" height="88" viewBox="0 0 120 88" fill="none" xmlns="http://www.w3.org/2000/svg">
<path d="M45.6028 26.6848C46.5391 25.6394 47.9548 25.1611 49.3333 25.4246L111.824 37.368C114.7 37.9177 116.03 41.2699 114.314 43.642L83.6258 86.0461C82.7561 87.2479 81.2926 87.8697 79.8238 87.6614L8.41377 77.5352C5.24787 77.0862 3.86242 73.288 5.99576 70.9061L45.6028 26.6848Z" fill="#00617B"/>
<path d="M45.6028 13.6848C46.5391 12.6394 47.9548 12.1611 49.3333 12.4246L111.824 24.368C114.7 24.9177 116.03 28.2699 114.314 30.642L83.6258 73.0461C82.7561 74.2479 81.2926 74.8697 79.8238 74.6614L8.41377 64.5352C5.24787 64.0862 3.86242 60.288 5.99576 57.9061L45.6028 13.6848Z" fill="#388296"/>
<path d="M44.5744 1.55783C45.4325 0.580999 46.7118 0.0821723 48.0046 0.220328L113.278 7.19568C116.302 7.51884 117.874 10.9649 116.135 13.46L82.3255 61.975C81.4604 63.2163 79.9689 63.8633 78.4714 63.6468L7.30191 53.3568C4.15938 52.9025 2.77358 49.1437 4.86909 46.7581L44.5744 1.55783Z" fill="#00C8FF"/>
<mask id="mask0_5_71" style="mask-type:luminance" maskUnits="userSpaceOnUse" x="50" y="21" width="20" height="18">
<path d="M69.5973 26.501L53.7139 21.472L50.0321 33.1005L65.9156 38.1294L69.5973 26.501Z" fill="white"/>
</mask>
<g mask="url(#mask0_5_71)">
<path fill-rule="evenodd" clip-rule="evenodd" d="M57.9123 30.0745L56.0723 26.5296C55.5097 25.4456 54.1748 25.023 53.0908 25.5856C52.0068 26.1482 51.5842 27.4831 52.1469 28.5671L54.9563 33.9797C55.2492 34.5442 55.7516 34.9293 56.3189 35.0894C56.8773 35.2888 57.5139 35.2643 58.0817 34.9697L67.8404 29.9045C68.9243 29.3418 69.347 28.007 68.7843 26.923C68.2217 25.839 66.8868 25.4163 65.8029 25.979L57.9123 30.0745Z" fill="white"/>
</g>
</svg>
