<svg width="110" height="103" viewBox="0 0 110 103" fill="none" xmlns="http://www.w3.org/2000/svg">
<g filter="url(#filter0_f_541_11)">
<rect x="25" y="25" width="60" height="53" rx="24" fill="#35BED5"/>
</g>
<rect x="23" y="24" width="60" height="54" rx="27" fill="#090909"/>
<path d="M53 52.4937C54.3772 52.4937 55.4937 51.3772 55.4937 50C55.4937 48.6227 54.3772 47.5062 53 47.5062C51.6227 47.5062 50.5062 48.6227 50.5062 50C50.5062 51.3772 51.6227 52.4937 53 52.4937Z" fill="#61DAFB"/>
<path d="M62.4719 45.8875C61.9907 45.7125 61.4875 45.5375 60.9625 45.3844C61.0938 44.8594 61.2031 44.3344 61.2906 43.8312C61.75 40.9437 61.2469 38.9094 59.8469 38.1219C59.4313 37.8812 58.9719 37.7719 58.4469 37.7719C56.9156 37.7719 54.9688 38.9094 53 40.8125C51.0313 38.9094 49.0844 37.7719 47.5531 37.7719C47.0281 37.7719 46.5688 37.8812 46.1531 38.1219C44.7531 38.9312 44.25 40.9656 44.7094 43.8312C44.7969 44.3344 44.9063 44.8594 45.0375 45.3844C44.5125 45.5375 44.0094 45.6906 43.5281 45.8875C40.7938 46.9375 39.3063 48.3812 39.3063 50C39.3063 51.6187 40.8156 53.0625 43.5281 54.1125C44.0094 54.2875 44.5125 54.4625 45.0375 54.6156C44.9063 55.1406 44.7969 55.6656 44.7094 56.1687C44.25 59.0562 44.7531 61.0906 46.1531 61.8781C46.5688 62.1187 47.0281 62.2281 47.5531 62.2281C49.1063 62.2281 51.0531 61.0906 53 59.1875C54.9688 61.0906 56.9156 62.2281 58.4469 62.2281C58.9719 62.2281 59.4313 62.1187 59.8469 61.8781C61.2469 61.0687 61.75 59.0343 61.2906 56.1687C61.2031 55.6656 61.0938 55.1406 60.9625 54.6156C61.4875 54.4625 61.9907 54.3094 62.4719 54.1125C65.2063 53.0625 66.6938 51.6187 66.6938 50C66.6938 48.3812 65.2063 46.9375 62.4719 45.8875ZM59.2344 39.2156C60.1313 39.7406 60.4375 41.3594 60.0656 43.6562C60 44.1156 59.8906 44.5969 59.7594 45.1C58.6219 44.8375 57.4188 44.6625 56.15 44.5531C55.4063 43.5031 54.6406 42.5625 53.875 41.7094C55.4938 40.1125 57.1344 39.0187 58.4688 39.0187C58.7531 39.0187 59.0156 39.0844 59.2344 39.2156ZM56.7844 52.1875C56.3906 52.8875 55.9313 53.5875 55.45 54.2875C54.6406 54.3531 53.8313 54.375 53 54.375C52.1469 54.375 51.3375 54.3531 50.55 54.2875C50.0688 53.5875 49.6313 52.8875 49.2375 52.1875C48.8219 51.4656 48.4281 50.7219 48.0781 50C48.4281 49.2781 48.8219 48.5344 49.2375 47.8125C49.6313 47.1125 50.0906 46.4125 50.5719 45.7125C51.3813 45.6469 52.1906 45.625 53.0219 45.625C53.875 45.625 54.6844 45.6469 55.4719 45.7125C55.9531 46.4125 56.3906 47.1125 56.7844 47.8125C57.2 48.5344 57.5938 49.2781 57.9438 50C57.5719 50.7219 57.2 51.4437 56.7844 52.1875ZM58.6 51.4656C58.9281 52.2312 59.1906 52.975 59.4313 53.7187C58.6875 53.8937 57.9 54.025 57.0688 54.1344C57.3313 53.7187 57.6156 53.2812 57.8563 52.8219C58.1188 52.3625 58.3594 51.9031 58.6 51.4656ZM53 57.3937C52.475 56.825 51.9719 56.2125 51.4906 55.5781C51.9938 55.6 52.4969 55.6219 53 55.6219C53.5031 55.6219 54.0063 55.6 54.5094 55.5781C54.0281 56.2125 53.525 56.825 53 57.3937ZM48.9313 54.1125C48.1 54.0031 47.3125 53.8719 46.5688 53.6969C46.8094 52.975 47.0719 52.2094 47.4 51.4437C47.6406 51.8812 47.8813 52.3406 48.1438 52.7781C48.4063 53.2593 48.6688 53.675 48.9313 54.1125ZM47.4 48.5343C47.0719 47.7687 46.8094 47.025 46.5688 46.2812C47.3125 46.1062 48.1 45.975 48.9313 45.8656C48.6688 46.2812 48.3844 46.7187 48.1438 47.1781C47.8813 47.6375 47.6406 48.0968 47.4 48.5343ZM53 42.6062C53.525 43.175 54.0281 43.7875 54.5094 44.4219C54.0063 44.4 53.5031 44.3781 53 44.3781C52.4969 44.3781 51.9938 44.4 51.4906 44.4219C51.9719 43.7875 52.475 43.175 53 42.6062ZM57.8563 47.2L57.0688 45.8875C57.9 45.9969 58.6875 46.1281 59.4313 46.3031C59.1906 47.025 58.9281 47.7906 58.6 48.5562C58.3594 48.0969 58.1188 47.6375 57.8563 47.2ZM45.9344 43.6562C45.5625 41.3594 45.8688 39.7406 46.7656 39.2156C46.9844 39.0844 47.2469 39.0187 47.5313 39.0187C48.8438 39.0187 50.4844 40.0906 52.125 41.7094C51.3594 42.5406 50.5938 43.5031 49.85 44.5531C48.5813 44.6625 47.3781 44.8594 46.2406 45.1C46.1094 44.5969 46.0219 44.1156 45.9344 43.6562ZM40.5313 50C40.5313 48.9719 41.7781 47.8781 43.9656 47.0687C44.4031 46.8937 44.8844 46.7406 45.3656 46.6094C45.7156 47.7031 46.1531 48.8625 46.6781 50.0219C46.1531 51.1812 45.6938 52.3187 45.3656 53.4125C42.3469 52.5375 40.5313 51.225 40.5313 50ZM46.7656 60.7844C45.8688 60.2594 45.5625 58.6406 45.9344 56.3437C46 55.8844 46.1094 55.4031 46.2406 54.9C47.3781 55.1625 48.5813 55.3375 49.85 55.4469C50.5938 56.4969 51.3594 57.4375 52.125 58.2906C50.5063 59.8875 48.8656 60.9812 47.5313 60.9812C47.2469 60.9812 46.9844 60.9156 46.7656 60.7844ZM60.0656 56.3437C60.4375 58.6406 60.1313 60.2594 59.2344 60.7844C59.0156 60.9156 58.7531 60.9812 58.4688 60.9812C57.1563 60.9812 55.5156 59.9094 53.875 58.2906C54.6406 57.4594 55.4063 56.4969 56.15 55.4469C57.4188 55.3375 58.6219 55.1406 59.7594 54.9C59.8906 55.4031 59.9781 55.8844 60.0656 56.3437ZM62.0344 52.9312C61.5969 53.1062 61.1157 53.2594 60.6344 53.3906C60.2844 52.2969 59.8469 51.1375 59.3219 49.9781C59.8469 48.8187 60.3063 47.6812 60.6344 46.5875C63.6531 47.4625 65.4688 48.775 65.4688 50C65.4688 51.0281 64.2 52.1219 62.0344 52.9312Z" fill="#61DAFB"/>
<defs>
<filter id="filter0_f_541_11" x="0" y="0" width="110" height="103" filterUnits="userSpaceOnUse" color-interpolation-filters="sRGB">
<feFlood flood-opacity="0" result="BackgroundImageFix"/>
<feBlend mode="normal" in="SourceGraphic" in2="BackgroundImageFix" result="shape"/>
<feGaussianBlur stdDeviation="12.5" result="effect1_foregroundBlur_541_11"/>
</filter>
</defs>
</svg>
